<svg id="SvgjsSvg1106" width="50%" height="50%" xmlns="http://www.w3.org/2000/svg" version="1.1" xlink="http://www.w3.org/1999/xlink" xmlns:svgjs="http://svgjs.com/svgjs" preserveAspectRatio="xMidYMid meet" viewBox="0 4.151062160673291e-9 295.45465087890625 147.00001525878906" overflow="visible"><defs id="SvgjsDefs1107"><linearGradient id="SvgjsLinearGradientF7-K1b1wa" gradientUnits="userSpaceOnUse" x1="3.700000047683722" y1="86.30000615119934" x2="86.30000615119934" y2="3.7000000476837114"><stop id="SvgjsStop1110" stop-color="#f28582" offset="0.05"></stop><stop id="SvgjsStop1111" stop-color="#de1b17" offset="0.95"></stop></linearGradient></defs><g id="SvgjsG1108" transform="scale(0.8946664335212194)" opacity="1"><g id="SvgjsG1112" class="szeLPXXJC" transform="translate(111.14615039179617, -4.437849608203834) scale(1.1994187975705646)" light-content="false" non-strokable="false" fill="url(#SvgjsLinearGradientF7-K1b1wa)"><path d="M45 86.3C22.2 86.3 3.7 67.8 3.7 45S22.2 3.7 45 3.7c22.8 0 41.3 18.5 41.3 41.3 0 9.6-3.3 18.9-9.4 26.3-1.8 2.1-4.9 2.4-7 .7-2.1-1.8-2.4-4.9-.7-7 4.6-5.6 7.1-12.6 7.1-19.9 0-17.2-14-31.3-31.3-31.3-17.2 0-31.3 14-31.3 31.3s14 31.3 31.3 31.3c2.8 0 5 2.2 5 5s-2.2 4.9-5 4.9z"></path><path d="M58 23.4c-2.2 0-4.4.8-6 2.5-3.3 3.3-3.3 8.7 0 12.1 1.7 1.7 3.8 2.5 6 2.5s4.4-.8 6-2.5c3.3-3.3 3.3-8.7 0-12.1-1.6-1.6-3.8-2.5-6-2.5zM32 49.5c-2.2 0-4.4.8-6 2.5-3.3 3.3-3.3 8.7 0 12.1 1.7 1.7 3.8 2.5 6 2.5s4.4-.8 6-2.5c3.3-3.3 3.3-8.7 0-12.1-1.7-1.7-3.8-2.5-6-2.5zm26 0c-2.2 0-4.4.8-6 2.5-3.3 3.3-3.3 8.7 0 12.1 1.7 1.7 3.8 2.5 6 2.5s4.4-.8 6-2.5c3.3-3.3 3.3-8.7 0-12.1-1.6-1.7-3.8-2.5-6-2.5zM32 23.4c-2.2 0-4.4.8-6 2.5-3.3 3.3-3.3 8.7 0 12.1 1.7 1.7 3.9 2.5 6 2.5 2.2 0 4.4-.8 6-2.5 3.3-3.3 3.3-8.7 0-12.1-1.7-1.6-3.8-2.5-6-2.5zm13 17.8c-1 0-1.9.4-2.7 1.1-1.5 1.5-1.5 3.9 0 5.4.7.7 1.7 1.1 2.7 1.1 1 0 1.9-.4 2.7-1.1 1.5-1.5 1.5-3.9 0-5.4-.8-.7-1.7-1.1-2.7-1.1zm36.3 45.1H44.6c-2.8 0-5-2.2-5-5s2.2-5 5-5h36.7c2.8 0 5 2.2 5 5s-2.3 5-5 5z"></path></g><g id="SvgjsG1113" class="text" transform="translate(76.79000091552734, 161.7295236442474) scale(1)" light-content="false" fill="#de1b17"><path d="M-35.92 -14.71C-35.94 -14.92 -35.97 -15.19 -36.01 -15.5C-36.04 -15.81 -36.09 -16.13 -36.15 -16.45C-36.21 -16.77 -36.27 -17.08 -36.33 -17.37C-36.39 -17.67 -36.45 -17.89 -36.5 -18.05C-36.64 -18.42 -36.8 -18.73 -36.97 -18.98C-37.15 -19.24 -37.31 -19.51 -37.47 -19.8C-37.63 -20.1 -37.76 -20.46 -37.87 -20.9C-37.97 -21.34 -38.03 -21.93 -38.03 -22.68C-38.03 -23.28 -38.01 -23.91 -37.97 -24.57C-37.93 -25.22 -37.91 -25.85 -37.91 -26.46C-37.91 -27.08 -37.95 -27.61 -38.03 -28.04C-38.11 -28.47 -38.19 -28.85 -38.28 -29.19C-38.36 -29.54 -38.44 -29.87 -38.51 -30.21C-38.58 -30.54 -38.61 -30.93 -38.61 -31.38C-38.61 -31.92 -38.59 -32.5 -38.55 -33.12C-38.52 -33.74 -38.5 -34.38 -38.5 -35.04C-38.52 -35.49 -38.54 -35.94 -38.57 -36.39C-38.6 -36.84 -38.65 -37.26 -38.72 -37.65C-38.78 -38.04 -38.88 -38.4 -38.99 -38.73C-39.11 -39.06 -39.27 -39.34 -39.46 -39.55C-39.66 -39.75 -39.89 -39.89 -40.15 -39.98C-40.42 -40.06 -40.7 -40.14 -41.02 -40.2C-41.33 -40.25 -41.66 -40.31 -42 -40.37C-42.34 -40.43 -42.68 -40.51 -43.01 -40.61C-43.36 -40.72 -43.65 -40.85 -43.89 -40.99C-44.12 -41.12 -44.33 -41.25 -44.52 -41.37C-44.7 -41.48 -44.88 -41.58 -45.06 -41.65C-45.23 -41.71 -45.45 -41.75 -45.7 -41.75C-46.23 -41.75 -46.7 -41.58 -47.11 -41.25C-47.52 -40.92 -47.89 -40.48 -48.22 -39.95C-48.55 -39.41 -48.85 -38.81 -49.12 -38.14C-49.38 -37.48 -49.62 -36.82 -49.83 -36.17C-50.05 -35.51 -50.25 -34.89 -50.43 -34.31C-50.62 -33.72 -50.8 -33.24 -50.98 -32.87C-51.25 -32.3 -51.58 -31.79 -51.97 -31.33C-52.36 -30.87 -52.71 -30.39 -53.03 -29.88C-53.28 -29.43 -53.52 -28.93 -53.73 -28.37C-53.95 -27.82 -54.15 -27.29 -54.35 -26.81C-54.54 -26.32 -54.74 -25.91 -54.95 -25.58C-55.15 -25.24 -55.37 -25.08 -55.61 -25.08C-55.7 -25.08 -55.91 -25.32 -56.24 -25.81C-56.56 -26.3 -56.91 -26.85 -57.29 -27.47C-57.67 -28.08 -58.02 -28.66 -58.33 -29.21C-58.64 -29.76 -58.83 -30.1 -58.89 -30.23C-59.02 -30.45 -59.1 -30.7 -59.12 -30.98C-59.14 -31.26 -59.21 -31.51 -59.33 -31.73C-59.48 -32.06 -59.71 -32.39 -60 -32.71C-60.29 -33.03 -60.55 -33.39 -60.76 -33.78C-61 -34.21 -61.23 -34.69 -61.45 -35.21C-61.67 -35.74 -61.9 -36.26 -62.12 -36.77C-62.35 -37.28 -62.58 -37.76 -62.81 -38.22C-63.05 -38.68 -63.3 -39.05 -63.57 -39.35C-63.83 -39.64 -64.16 -39.84 -64.56 -39.96C-64.96 -40.08 -65.4 -40.17 -65.87 -40.22C-66.35 -40.28 -66.87 -40.33 -67.43 -40.37C-67.98 -40.41 -68.54 -40.49 -69.11 -40.61C-69.5 -40.68 -69.81 -40.8 -70.03 -40.97C-70.26 -41.14 -70.51 -41.22 -70.78 -41.22C-70.86 -41.2 -71.01 -41.16 -71.24 -41.09C-71.46 -41.02 -71.69 -40.93 -71.94 -40.83C-72.18 -40.72 -72.41 -40.62 -72.63 -40.52C-72.84 -40.42 -72.97 -40.33 -73.01 -40.25C-73.09 -40.18 -73.13 -40.06 -73.15 -39.9C-73.17 -39.75 -73.18 -39.56 -73.18 -39.33C-73.18 -39.11 -73.19 -38.87 -73.21 -38.61C-73.23 -38.36 -73.28 -38.11 -73.36 -37.85C-73.52 -37.34 -73.68 -36.85 -73.86 -36.36C-74.03 -35.87 -74.2 -35.4 -74.36 -34.94C-74.51 -34.48 -74.64 -34.04 -74.75 -33.62C-74.86 -33.2 -74.91 -32.81 -74.91 -32.46C-74.91 -31.91 -74.88 -31.43 -74.81 -31.01C-74.74 -30.59 -74.67 -30.2 -74.59 -29.82C-74.51 -29.45 -74.44 -29.09 -74.37 -28.74C-74.3 -28.39 -74.27 -28.01 -74.27 -27.6C-74.27 -27.15 -74.29 -26.74 -74.34 -26.37C-74.39 -26 -74.45 -25.63 -74.52 -25.28C-74.58 -24.93 -74.65 -24.59 -74.72 -24.26C-74.79 -23.93 -74.83 -23.58 -74.85 -23.23C-74.89 -22.49 -74.93 -21.74 -74.96 -20.98C-74.99 -20.21 -75.02 -19.47 -75.06 -18.74C-75.1 -18 -75.14 -17.29 -75.19 -16.61C-75.24 -15.93 -75.31 -15.29 -75.41 -14.71C-75.47 -14.32 -75.55 -13.98 -75.64 -13.7C-75.74 -13.41 -75.83 -13.13 -75.92 -12.85C-76.01 -12.56 -76.08 -12.26 -76.14 -11.94C-76.2 -11.62 -76.23 -11.22 -76.23 -10.75C-76.23 -9.52 -76.32 -8.37 -76.51 -7.29C-76.69 -6.22 -76.79 -5.31 -76.79 -4.57C-76.79 -3.98 -76.62 -3.46 -76.27 -2.99C-75.93 -2.52 -75.49 -2.12 -74.94 -1.8C-74.39 -1.48 -73.8 -1.23 -73.15 -1.05C-72.51 -0.88 -71.87 -0.79 -71.25 -0.79C-70.76 -0.79 -70.34 -0.89 -69.99 -1.08C-69.64 -1.28 -69.32 -1.52 -69.02 -1.82C-68.73 -2.11 -68.46 -2.43 -68.22 -2.78C-67.97 -3.13 -67.71 -3.47 -67.41 -3.78C-67.12 -4.09 -66.87 -4.33 -66.67 -4.48C-66.46 -4.64 -66.29 -4.79 -66.15 -4.94C-66.02 -5.08 -65.91 -5.25 -65.84 -5.45C-65.78 -5.64 -65.74 -5.95 -65.74 -6.36C-65.74 -6.77 -65.78 -7.2 -65.86 -7.65C-65.94 -8.1 -66.02 -8.54 -66.11 -8.99C-66.2 -9.44 -66.28 -9.88 -66.36 -10.31C-66.44 -10.74 -66.48 -11.16 -66.5 -11.57C-66.54 -12.26 -66.57 -12.96 -66.58 -13.68C-66.59 -14.4 -66.59 -15.13 -66.59 -15.85L-66.59 -19.19C-66.59 -20.05 -66.6 -20.87 -66.62 -21.65C-66.64 -22.43 -66.67 -23.19 -66.71 -23.94C-66.51 -23.53 -66.3 -23.08 -66.08 -22.59C-65.85 -22.1 -65.62 -21.61 -65.39 -21.12C-65.16 -20.63 -64.91 -20.16 -64.66 -19.69C-64.4 -19.22 -64.16 -18.8 -63.93 -18.43C-63.75 -18.15 -63.54 -17.91 -63.3 -17.7C-63.05 -17.48 -62.82 -17.23 -62.61 -16.93C-62.24 -16.37 -61.93 -15.84 -61.7 -15.35C-61.46 -14.86 -61.22 -14.43 -60.97 -14.05C-60.71 -13.67 -60.42 -13.37 -60.07 -13.15C-59.73 -12.94 -59.26 -12.83 -58.65 -12.83C-57.7 -12.81 -57.01 -12.89 -56.6 -13.05C-56.19 -13.22 -55.91 -13.44 -55.75 -13.73C-55.6 -14.01 -55.5 -14.34 -55.46 -14.71C-55.42 -15.08 -55.28 -15.46 -55.05 -15.85C-54.81 -16.24 -54.49 -16.59 -54.08 -16.9C-53.67 -17.22 -53.32 -17.6 -53.03 -18.05C-52.7 -18.54 -52.38 -19.06 -52.09 -19.63C-51.8 -20.2 -51.49 -20.75 -51.17 -21.28C-50.84 -21.82 -50.5 -22.32 -50.14 -22.79C-49.78 -23.26 -49.38 -23.64 -48.93 -23.94C-48.75 -22.53 -48.63 -21.15 -48.56 -19.8C-48.49 -18.46 -48.46 -17.12 -48.46 -15.79C-48.46 -14.37 -48.48 -12.97 -48.52 -11.62C-48.55 -10.26 -48.57 -8.95 -48.57 -7.68C-48.57 -7.29 -48.56 -6.88 -48.54 -6.47C-48.53 -6.06 -48.52 -5.66 -48.52 -5.27C-48.52 -4.8 -48.37 -4.39 -48.09 -4.03C-47.81 -3.67 -47.46 -3.36 -47.05 -3.12C-46.64 -2.88 -46.21 -2.7 -45.76 -2.58C-45.31 -2.46 -44.93 -2.4 -44.62 -2.4C-44.13 -2.4 -43.62 -2.43 -43.1 -2.49C-42.57 -2.55 -42.06 -2.63 -41.56 -2.72C-41.06 -2.82 -40.61 -2.93 -40.21 -3.06C-39.81 -3.19 -39.5 -3.31 -39.29 -3.43C-38.76 -3.7 -38.29 -4.23 -37.87 -5.02C-37.45 -5.82 -37.09 -6.75 -36.81 -7.82C-36.53 -8.9 -36.31 -10.04 -36.15 -11.25C-36 -12.46 -35.92 -13.61 -35.92 -14.71Z M-4.25 -7.68L-4.25 -7.91C-4.25 -8.16 -4.28 -8.45 -4.35 -8.76C-4.42 -9.07 -4.49 -9.39 -4.57 -9.71C-4.65 -10.03 -4.72 -10.35 -4.79 -10.65C-4.86 -10.95 -4.89 -11.22 -4.89 -11.46C-4.89 -12.08 -4.84 -12.7 -4.75 -13.3C-4.65 -13.91 -4.6 -14.49 -4.6 -15.06C-4.64 -15.43 -4.72 -15.79 -4.83 -16.14C-4.95 -16.49 -5.01 -16.86 -5.01 -17.23C-5.01 -17.52 -5 -17.8 -4.98 -18.08C-4.96 -18.35 -4.95 -18.62 -4.95 -18.9C-4.95 -19.35 -5.05 -19.8 -5.24 -20.27C-5.44 -20.74 -5.69 -21.23 -5.99 -21.72C-6.29 -22.22 -6.62 -22.73 -6.97 -23.26C-7.32 -23.79 -7.66 -24.34 -7.97 -24.9C-8.24 -25.39 -8.45 -25.89 -8.58 -26.4C-8.72 -26.9 -8.9 -27.38 -9.11 -27.83C-9.33 -28.22 -9.62 -28.6 -9.99 -28.96C-10.36 -29.32 -10.66 -29.75 -10.9 -30.23C-11.05 -30.51 -11.15 -30.8 -11.19 -31.1C-11.23 -31.4 -11.33 -31.68 -11.48 -31.93C-12.11 -33.07 -12.87 -33.93 -13.77 -34.51C-14.67 -35.1 -15.66 -35.51 -16.76 -35.76C-17.85 -36 -19.03 -36.13 -20.29 -36.15C-21.55 -36.17 -22.84 -36.18 -24.17 -36.18C-24.27 -36.18 -24.33 -36.15 -24.36 -36.09C-24.39 -36.04 -24.42 -36.01 -24.46 -36.01C-25.24 -35.93 -25.97 -35.77 -26.63 -35.52C-27.29 -35.28 -27.88 -34.97 -28.39 -34.58C-28.9 -34.2 -29.33 -33.75 -29.68 -33.24C-30.03 -32.72 -30.27 -32.16 -30.41 -31.55C-30.62 -30.5 -30.82 -29.46 -31 -28.43C-31.17 -27.41 -31.4 -26.29 -31.67 -25.08C-31.9 -24.08 -32.16 -23.14 -32.45 -22.25C-32.73 -21.36 -32.87 -20.53 -32.87 -19.75C-32.87 -19.32 -32.85 -18.87 -32.8 -18.41C-32.75 -17.95 -32.72 -17.5 -32.72 -17.05C-32.72 -16.25 -32.8 -15.35 -32.94 -14.34C-33.09 -13.33 -33.16 -12.33 -33.16 -11.34C-33.16 -10.87 -33.13 -10.48 -33.06 -10.17C-32.99 -9.85 -32.91 -9.57 -32.8 -9.32C-32.69 -9.06 -32.57 -8.81 -32.45 -8.57C-32.32 -8.33 -32.2 -8.03 -32.08 -7.68C-31.9 -7.15 -31.76 -6.58 -31.66 -5.96C-31.55 -5.35 -31.45 -4.76 -31.36 -4.19C-31.27 -3.62 -31.19 -3.12 -31.11 -2.67C-31.04 -2.22 -30.92 -1.9 -30.76 -1.73C-30.68 -1.63 -30.54 -1.54 -30.34 -1.46C-30.13 -1.39 -29.9 -1.31 -29.65 -1.25C-29.39 -1.18 -29.14 -1.1 -28.89 -1.03C-28.63 -0.95 -28.4 -0.87 -28.18 -0.79C-27.64 -0.52 -27.12 -0.24 -26.63 0.03C-26.14 0.3 -25.54 0.52 -24.81 0.67C-24.19 0.83 -23.57 0.93 -22.95 0.97C-22.34 1.01 -21.72 1.03 -21.09 1.03C-20.66 1.03 -20.24 1.02 -19.83 1C-19.42 0.98 -19.02 0.97 -18.63 0.97C-17.97 0.97 -17.38 1.04 -16.86 1.2C-16.34 1.36 -15.86 1.44 -15.41 1.44C-15.1 1.4 -14.74 1.29 -14.33 1.11C-13.92 0.94 -13.46 0.79 -12.95 0.67C-12.3 0.54 -11.78 0.45 -11.38 0.42C-10.98 0.4 -10.63 0.36 -10.34 0.31C-10.05 0.26 -9.78 0.18 -9.54 0.06C-9.29 -0.06 -9 -0.27 -8.67 -0.59C-8.32 -0.9 -8.04 -1.19 -7.82 -1.46C-7.61 -1.74 -7.42 -2.03 -7.25 -2.34C-7.08 -2.66 -6.91 -3 -6.74 -3.37C-6.56 -3.74 -6.35 -4.18 -6.09 -4.69C-5.94 -5.04 -5.76 -5.36 -5.55 -5.65C-5.35 -5.95 -5.15 -6.22 -4.97 -6.47C-4.78 -6.73 -4.62 -6.95 -4.5 -7.15C-4.37 -7.34 -4.29 -7.52 -4.25 -7.68ZM-14.62 -13.39C-14.64 -13.19 -14.74 -12.88 -14.93 -12.44C-15.11 -12 -15.33 -11.55 -15.59 -11.09C-15.84 -10.63 -16.1 -10.21 -16.36 -9.83C-16.63 -9.45 -16.85 -9.21 -17.02 -9.11C-17.2 -9.01 -17.44 -8.95 -17.75 -8.92C-18.07 -8.89 -18.42 -8.88 -18.81 -8.88C-19.96 -8.88 -20.93 -8.95 -21.71 -9.08C-22.49 -9.22 -23.13 -9.48 -23.61 -9.86C-24.1 -10.24 -24.45 -10.77 -24.67 -11.46C-24.88 -12.14 -24.99 -13.04 -24.99 -14.15C-24.99 -14.64 -24.93 -15.12 -24.81 -15.59C-24.8 -15.7 -24.73 -15.85 -24.62 -16.03C-24.52 -16.2 -24.4 -16.38 -24.27 -16.57C-24.15 -16.75 -24.03 -16.92 -23.92 -17.08C-23.81 -17.24 -23.75 -17.36 -23.73 -17.46C-23.69 -17.68 -23.66 -17.93 -23.63 -18.24C-23.6 -18.54 -23.57 -18.87 -23.54 -19.22C-23.51 -19.57 -23.48 -19.93 -23.45 -20.29C-23.42 -20.65 -23.38 -21.01 -23.32 -21.36C-23.2 -22.24 -23.07 -23.07 -22.92 -23.85C-22.78 -24.63 -22.71 -25.24 -22.71 -25.69C-22.71 -25.99 -22.71 -26.26 -22.73 -26.53C-22.75 -26.79 -22.76 -27.03 -22.76 -27.25C-22.76 -27.52 -22.74 -27.76 -22.71 -27.96C-22.67 -28.17 -22.57 -28.33 -22.41 -28.45C-22.41 -28.43 -22.34 -28.42 -22.21 -28.43C-22.07 -28.44 -21.9 -28.46 -21.69 -28.48C-21.49 -28.5 -21.27 -28.52 -21.05 -28.54C-20.83 -28.55 -20.62 -28.56 -20.45 -28.56C-19.94 -28.56 -19.44 -28.34 -18.94 -27.89C-18.44 -27.44 -18 -26.87 -17.61 -26.18C-17.22 -25.48 -16.9 -24.72 -16.66 -23.88C-16.41 -23.04 -16.29 -22.22 -16.29 -21.42C-16.29 -21.2 -16.3 -21.01 -16.32 -20.83C-16.34 -20.65 -16.35 -20.47 -16.35 -20.27C-16.31 -19.88 -16.2 -19.48 -16.03 -19.07C-15.85 -18.66 -15.7 -18.26 -15.59 -17.87C-15.47 -17.48 -15.4 -17.09 -15.37 -16.71C-15.34 -16.33 -15.28 -15.96 -15.21 -15.59C-15.09 -15.14 -14.96 -14.77 -14.82 -14.49C-14.69 -14.2 -14.62 -13.84 -14.62 -13.39Z M27.63 -35.16C27.59 -35.39 27.45 -35.68 27.2 -36.04C26.96 -36.39 26.67 -36.73 26.32 -37.06C25.98 -37.39 25.61 -37.68 25.21 -37.92C24.81 -38.17 24.43 -38.31 24.08 -38.35C23.55 -38.35 23.09 -38.14 22.68 -37.73C22.27 -37.32 21.91 -36.81 21.61 -36.2C21.3 -35.58 21.04 -34.92 20.8 -34.2C20.57 -33.49 20.36 -32.83 20.19 -32.23C20.07 -31.82 19.99 -31.41 19.94 -31.01C19.89 -30.61 19.85 -30.22 19.82 -29.84C19.79 -29.46 19.76 -29.09 19.72 -28.74C19.68 -28.39 19.6 -28.07 19.48 -27.77C19.29 -27.29 19 -26.87 18.63 -26.54C18.26 -26.21 17.98 -25.86 17.78 -25.49C17.63 -25.2 17.56 -24.85 17.58 -24.46C17.6 -24.07 17.55 -23.68 17.43 -23.29C17.33 -23.04 17.22 -22.8 17.08 -22.57C16.94 -22.35 16.83 -22.1 16.73 -21.83C16.51 -21.24 16.3 -20.6 16.08 -19.91C15.87 -19.21 15.67 -18.51 15.48 -17.8C15.3 -17.08 15.12 -16.4 14.96 -15.73C14.79 -15.07 14.63 -14.47 14.49 -13.95C14.34 -13.42 14.2 -12.99 14.08 -12.67C13.95 -12.35 13.83 -12.19 13.71 -12.19C13.65 -13.14 13.51 -14.11 13.27 -15.07C13.04 -16.04 12.79 -17.01 12.54 -17.97C12.29 -18.94 12.06 -19.91 11.85 -20.89C11.65 -21.87 11.54 -22.84 11.54 -23.82L11.54 -25.55C11.54 -26.09 11.52 -26.57 11.47 -26.97C11.42 -27.37 11.36 -27.75 11.28 -28.11C11.2 -28.47 11.12 -28.84 11.03 -29.22C10.94 -29.6 10.86 -30.04 10.78 -30.53C10.61 -31.48 10.47 -32.52 10.37 -33.63C10.27 -34.75 10.15 -35.81 9.99 -36.81C9.83 -37.82 9.62 -38.71 9.36 -39.49C9.1 -40.27 8.71 -40.81 8.2 -41.1C7.93 -41.26 7.57 -41.36 7.12 -41.4C6.67 -41.44 6.19 -41.46 5.68 -41.46C4.49 -41.46 3.6 -41.37 3 -41.21C2.41 -41.04 1.96 -40.85 1.66 -40.63C1.35 -40.42 1.12 -40.2 0.95 -39.98C0.79 -39.75 0.54 -39.57 0.21 -39.43C-0.01 -39.34 -0.27 -39.27 -0.59 -39.23C-0.9 -39.19 -1.21 -39.16 -1.51 -39.13C-1.81 -39.1 -2.09 -39.07 -2.36 -39.04C-2.62 -39.01 -2.82 -38.96 -2.96 -38.88C-3.47 -38.54 -3.82 -38.06 -4.03 -37.41C-4.23 -36.77 -4.34 -36.07 -4.34 -35.33C-4.34 -34.88 -4.31 -34.42 -4.26 -33.96C-4.21 -33.49 -4.15 -33.03 -4.06 -32.59C-3.97 -32.15 -3.88 -31.74 -3.79 -31.36C-3.71 -30.98 -3.61 -30.64 -3.52 -30.35C-3.4 -30.02 -3.29 -29.65 -3.19 -29.25C-3.1 -28.85 -3 -28.46 -2.92 -28.08C-2.83 -27.7 -2.74 -27.36 -2.65 -27.07C-2.56 -26.78 -2.47 -26.57 -2.37 -26.46C-2.12 -26.1 -1.82 -25.84 -1.48 -25.66C-1.14 -25.49 -0.82 -25.33 -0.51 -25.18C-0.21 -25.03 0.05 -24.85 0.26 -24.64C0.48 -24.42 0.59 -24.09 0.59 -23.64C0.59 -23.25 0.52 -22.89 0.4 -22.54C0.27 -22.2 0.21 -21.85 0.21 -21.47C0.21 -20.83 0.39 -20.02 0.75 -19.06C1.11 -18.09 1.51 -17.09 1.95 -16.07C2.39 -15.04 2.79 -14.06 3.15 -13.12C3.51 -12.19 3.69 -11.42 3.69 -10.81C3.69 -10.67 3.68 -10.54 3.66 -10.4C3.64 -10.26 3.63 -10.14 3.63 -10.02C3.63 -9.86 3.69 -9.69 3.79 -9.51C3.9 -9.32 4.03 -9.1 4.17 -8.85C4.32 -8.59 4.47 -8.32 4.63 -8.01C4.79 -7.71 4.91 -7.38 5.01 -7.03C5.09 -6.68 5.17 -6.38 5.24 -6.14C5.32 -5.89 5.4 -5.67 5.46 -5.46C5.53 -5.26 5.61 -5.05 5.7 -4.85C5.79 -4.64 5.88 -4.42 5.98 -4.19C6.07 -3.92 6.13 -3.62 6.15 -3.31C6.17 -3 6.23 -2.75 6.33 -2.58C6.7 -1.7 7.09 -1 7.5 -0.48C7.91 0.03 8.43 0.42 9.05 0.67C9.68 0.93 10.45 1.09 11.38 1.16C12.31 1.23 13.47 1.26 14.85 1.26C15.19 1.26 15.47 1.25 15.7 1.25C15.94 1.24 16.13 1.2 16.29 1.14C16.48 1.1 16.77 0.94 17.14 0.66C17.51 0.38 17.88 0.06 18.25 -0.29C18.62 -0.64 18.96 -1 19.26 -1.35C19.57 -1.7 19.76 -1.97 19.83 -2.17C19.87 -2.32 19.9 -2.48 19.92 -2.62C19.94 -2.77 19.95 -2.93 19.95 -3.11L19.95 -3.84C19.95 -4.29 20.04 -4.79 20.23 -5.35C20.42 -5.9 20.63 -6.48 20.86 -7.09C21.09 -7.7 21.3 -8.31 21.49 -8.94C21.67 -9.56 21.77 -10.17 21.77 -10.75C21.77 -10.93 21.75 -11.09 21.72 -11.25C21.69 -11.41 21.68 -11.57 21.68 -11.75C21.66 -12.14 21.71 -12.55 21.84 -12.98C21.97 -13.41 22.12 -13.84 22.31 -14.27C22.5 -14.7 22.69 -15.12 22.9 -15.54C23.1 -15.96 23.26 -16.38 23.38 -16.79C23.5 -17.29 23.58 -17.83 23.64 -18.38C23.7 -18.94 23.79 -19.47 23.91 -19.98C24 -20.33 24.12 -20.65 24.24 -20.95C24.37 -21.24 24.49 -21.51 24.61 -21.77C24.73 -22.02 24.83 -22.26 24.92 -22.47C25 -22.69 25.05 -22.89 25.05 -23.09C25.05 -23.52 25.01 -23.96 24.93 -24.43C24.85 -24.9 24.81 -25.36 24.81 -25.81C24.81 -26.34 24.86 -26.82 24.96 -27.25C25.06 -27.68 25.17 -28.07 25.3 -28.42C25.42 -28.77 25.57 -29.1 25.72 -29.41C25.88 -29.73 26.02 -30.04 26.13 -30.35C26.23 -30.6 26.29 -30.87 26.31 -31.16C26.33 -31.44 26.39 -31.74 26.48 -32.05C26.7 -32.66 26.94 -33.2 27.22 -33.69C27.49 -34.18 27.63 -34.61 27.63 -34.98Z M43.07 -29.71C43.07 -29.94 43.08 -30.19 43.1 -30.45C43.12 -30.72 43.13 -30.97 43.13 -31.2C43.13 -31.86 43.1 -32.5 43.05 -33.11C43 -33.71 42.95 -34.18 42.89 -34.51C42.85 -34.63 42.76 -34.87 42.61 -35.23C42.47 -35.59 42.29 -35.97 42.1 -36.37C41.9 -36.77 41.72 -37.14 41.56 -37.47C41.39 -37.8 41.28 -37.99 41.22 -38.03C41.04 -38.18 40.8 -38.31 40.47 -38.41C40.15 -38.51 39.78 -38.58 39.36 -38.64C38.94 -38.7 38.49 -38.75 38 -38.77C37.51 -38.8 37.02 -38.82 36.53 -38.82C35.87 -38.82 35.23 -38.78 34.61 -38.7C34 -38.62 33.5 -38.58 33.11 -38.58C33.01 -38.58 32.91 -38.59 32.8 -38.61C32.69 -38.63 32.58 -38.64 32.46 -38.64C32.32 -38.64 32.12 -38.51 31.85 -38.25C31.57 -37.98 31.3 -37.67 31.03 -37.31C30.75 -36.95 30.51 -36.58 30.29 -36.2C30.08 -35.82 29.95 -35.51 29.91 -35.27C29.87 -35.18 29.85 -35.08 29.85 -34.98L29.85 -34.69C29.85 -34 29.96 -33.29 30.16 -32.55C30.37 -31.81 30.47 -31.04 30.47 -30.23C30.47 -30 30.44 -29.76 30.38 -29.52C30.32 -29.27 30.26 -29.03 30.19 -28.78C30.12 -28.54 30.06 -28.31 30 -28.1C29.94 -27.88 29.91 -27.7 29.91 -27.54C29.87 -27.29 29.95 -27.02 30.15 -26.73C30.34 -26.45 30.56 -26.16 30.81 -25.87C31.05 -25.58 31.27 -25.27 31.48 -24.95C31.68 -24.62 31.79 -24.29 31.79 -23.94C31.79 -23.6 31.75 -23.32 31.68 -23.09C31.62 -22.85 31.54 -22.61 31.45 -22.35C31.36 -22.1 31.28 -21.81 31.22 -21.47C31.15 -21.14 31.11 -20.7 31.11 -20.16C31.11 -19.59 31.15 -19.11 31.23 -18.71C31.31 -18.31 31.39 -17.92 31.48 -17.55C31.57 -17.18 31.65 -16.79 31.73 -16.38C31.81 -15.97 31.85 -15.49 31.85 -14.94C31.85 -14.32 31.82 -13.69 31.77 -13.05C31.72 -12.42 31.67 -11.79 31.61 -11.18C31.55 -10.56 31.5 -9.96 31.45 -9.37C31.4 -8.79 31.38 -8.24 31.38 -7.73C31.38 -7.11 31.43 -6.63 31.52 -6.28C31.62 -5.94 31.74 -5.66 31.89 -5.43C32.04 -5.21 32.2 -5 32.37 -4.79C32.55 -4.58 32.71 -4.31 32.87 -3.96C33.11 -3.35 33.27 -2.76 33.37 -2.18C33.47 -1.61 33.59 -1.09 33.74 -0.63C33.88 -0.17 34.1 0.2 34.39 0.48C34.69 0.77 35.16 0.91 35.8 0.91C36.68 0.91 37.37 0.83 37.87 0.66C38.36 0.49 38.75 0.25 39.01 -0.06C39.27 -0.37 39.46 -0.76 39.58 -1.22C39.7 -1.67 39.82 -2.21 39.96 -2.81C40.08 -3.34 40.19 -3.84 40.3 -4.32C40.41 -4.8 40.5 -5.28 40.58 -5.76C40.65 -6.24 40.72 -6.72 40.77 -7.21C40.82 -7.7 40.84 -8.21 40.84 -8.76C40.84 -10.42 40.8 -11.99 40.72 -13.46C40.64 -14.94 40.61 -16.37 40.61 -17.75C40.61 -18.44 40.66 -19 40.77 -19.45C40.87 -19.9 41.01 -20.27 41.18 -20.57C41.34 -20.86 41.52 -21.11 41.72 -21.33C41.91 -21.54 42.09 -21.77 42.26 -22.02C42.43 -22.26 42.56 -22.55 42.67 -22.88C42.78 -23.21 42.83 -23.64 42.83 -24.17C42.83 -24.68 42.81 -25.22 42.77 -25.81C42.73 -26.4 42.71 -26.97 42.71 -27.54C42.71 -27.99 42.76 -28.37 42.86 -28.68C42.96 -28.99 43.03 -29.34 43.07 -29.71Z M77.93 -7.68C78.05 -8.01 78.13 -8.36 78.19 -8.73C78.25 -9.1 78.28 -9.45 78.28 -9.79C78.28 -10.94 78 -11.82 77.45 -12.42C76.89 -13.03 76.08 -13.33 75.03 -13.33C74.6 -13.33 74.19 -13.28 73.8 -13.17C73.41 -13.06 73.02 -12.93 72.64 -12.79C72.26 -12.64 71.87 -12.49 71.46 -12.33C71.04 -12.18 70.6 -12.05 70.11 -11.95C69.52 -11.84 68.9 -11.72 68.25 -11.6C67.59 -11.48 66.92 -11.38 66.24 -11.29C65.56 -11.21 64.87 -11.13 64.19 -11.07C63.51 -11.02 62.84 -10.99 62.2 -10.99C61.36 -10.99 60.73 -11.07 60.32 -11.24C59.91 -11.4 59.63 -11.67 59.47 -12.06C59.32 -12.44 59.24 -12.93 59.25 -13.55C59.26 -14.17 59.27 -14.93 59.27 -15.85C59.27 -16.12 59.3 -16.34 59.37 -16.49C59.44 -16.65 59.56 -16.77 59.74 -16.86C59.91 -16.95 60.17 -17.01 60.5 -17.04C60.83 -17.07 61.26 -17.09 61.79 -17.11C63.21 -17.15 64.36 -17.21 65.23 -17.3C66.1 -17.39 66.77 -17.58 67.25 -17.89C67.73 -18.19 68.05 -18.64 68.2 -19.25C68.36 -19.85 68.44 -20.71 68.44 -21.83C68.44 -22.16 68.42 -22.43 68.39 -22.63C68.36 -22.84 68.31 -23.01 68.23 -23.14C68.15 -23.28 68.05 -23.41 67.91 -23.53C67.77 -23.64 67.59 -23.78 67.35 -23.94C67.26 -23.99 67.18 -24.07 67.13 -24.16C67.08 -24.24 67.01 -24.33 66.91 -24.42C66.82 -24.51 66.68 -24.58 66.52 -24.64C66.35 -24.7 66.11 -24.73 65.8 -24.73C65.51 -24.73 65.22 -24.68 64.94 -24.58C64.65 -24.48 64.35 -24.37 64.03 -24.24C63.71 -24.12 63.36 -24 63 -23.91C62.64 -23.81 62.24 -23.76 61.79 -23.76C61.42 -23.76 60.93 -23.76 60.34 -23.77C59.74 -23.78 59.14 -23.81 58.54 -23.86C57.93 -23.91 57.37 -23.99 56.87 -24.1C56.36 -24.2 56.02 -24.36 55.84 -24.55C55.8 -24.61 55.76 -24.75 55.71 -24.96C55.66 -25.18 55.62 -25.44 55.58 -25.75C55.54 -26.06 55.5 -26.4 55.47 -26.75C55.44 -27.1 55.43 -27.44 55.43 -27.77C55.43 -28.24 55.45 -28.6 55.5 -28.86C55.55 -29.11 55.64 -29.3 55.77 -29.41C55.89 -29.53 56.07 -29.6 56.31 -29.62C56.54 -29.64 56.85 -29.65 57.22 -29.65C58.62 -29.65 60.03 -29.58 61.44 -29.43C62.84 -29.28 64.12 -29.21 65.27 -29.21C66.23 -29.21 67.12 -29.24 67.95 -29.3C68.78 -29.36 69.63 -29.43 70.49 -29.53C71.45 -29.63 72.29 -29.72 73.01 -29.79C73.73 -29.87 74.34 -30.04 74.82 -30.31C75.31 -30.57 75.68 -30.99 75.92 -31.55C76.17 -32.12 76.29 -32.94 76.29 -34.01C76.29 -34.78 76.19 -35.34 76 -35.7C75.8 -36.06 75.52 -36.32 75.15 -36.49C74.78 -36.65 74.32 -36.78 73.78 -36.86C73.25 -36.93 72.65 -37.09 71.98 -37.32C71.81 -37.38 71.61 -37.49 71.4 -37.63C71.18 -37.78 70.94 -37.91 70.66 -38.03C70.43 -38.16 70.16 -38.26 69.84 -38.32C69.53 -38.38 69.27 -38.47 69.05 -38.58C68.72 -38.76 68.45 -38.94 68.25 -39.13C68.04 -39.31 67.84 -39.48 67.63 -39.62C67.43 -39.77 67.21 -39.89 66.97 -39.99C66.74 -40.09 66.43 -40.14 66.04 -40.14C65.41 -40.14 64.84 -40.1 64.34 -40.03C63.83 -39.97 63.36 -39.89 62.94 -39.81C62.52 -39.74 62.15 -39.66 61.82 -39.59C61.48 -39.53 61.19 -39.49 60.94 -39.49C59.65 -39.49 58.37 -39.59 57.1 -39.79C55.83 -39.98 54.61 -40.08 53.44 -40.08C52.75 -40.08 51.96 -39.94 51.06 -39.65C50.17 -39.37 49.32 -38.98 48.52 -38.48C47.71 -37.98 47.04 -37.4 46.48 -36.74C45.92 -36.07 45.64 -35.35 45.64 -34.57C45.64 -33.83 45.8 -33.27 46.1 -32.89C46.4 -32.5 46.73 -32.21 47.08 -31.99C47.43 -31.78 47.76 -31.6 48.06 -31.46C48.36 -31.33 48.52 -31.14 48.52 -30.91C48.52 -30.54 48.5 -30.1 48.46 -29.6C48.42 -29.11 48.38 -28.58 48.34 -28.04C48.3 -27.49 48.26 -26.93 48.22 -26.37C48.18 -25.8 48.16 -25.25 48.16 -24.73C48.16 -23.57 48.19 -22.46 48.24 -21.39C48.29 -20.31 48.36 -19.33 48.46 -18.43C48.5 -18.06 48.58 -17.71 48.71 -17.37C48.83 -17.04 48.9 -16.63 48.9 -16.14C48.9 -15.83 48.88 -15.5 48.85 -15.16C48.82 -14.82 48.81 -14.48 48.81 -14.15C48.81 -13.47 48.84 -12.86 48.91 -12.33C48.98 -11.81 49.01 -11.34 49.01 -10.93C49.01 -10.73 48.99 -10.52 48.94 -10.28C48.89 -10.05 48.82 -9.83 48.72 -9.64C48.62 -9.44 48.49 -9.28 48.33 -9.14C48.16 -9 47.95 -8.94 47.7 -8.94L47.26 -8.94C47.02 -8.94 46.76 -8.86 46.46 -8.7C46.17 -8.54 45.9 -8.35 45.64 -8.12C45.39 -7.88 45.18 -7.62 45 -7.34C44.82 -7.06 44.74 -6.79 44.74 -6.53C44.74 -6.18 44.8 -5.89 44.94 -5.65C45.08 -5.42 45.25 -5.21 45.45 -5.02C45.66 -4.84 45.88 -4.65 46.13 -4.47C46.37 -4.28 46.59 -4.05 46.79 -3.78C46.85 -3.68 46.9 -3.55 46.96 -3.4C47.02 -3.24 47.08 -3.08 47.14 -2.9C47.2 -2.72 47.26 -2.56 47.31 -2.42C47.37 -2.27 47.43 -2.17 47.49 -2.11C48.04 -1.54 48.59 -1.13 49.16 -0.88C49.73 -0.63 50.29 -0.44 50.86 -0.32C51.43 -0.21 51.99 -0.12 52.56 -0.06C53.13 0 53.68 0.12 54.23 0.29C54.58 0.43 54.87 0.58 55.11 0.75C55.34 0.91 55.59 1.06 55.84 1.2C56.09 1.34 56.4 1.45 56.76 1.54C57.12 1.63 57.62 1.67 58.24 1.67C58.85 1.67 59.48 1.64 60.13 1.58C60.79 1.52 61.42 1.45 62.04 1.36C62.65 1.27 63.23 1.19 63.76 1.1C64.3 1.01 64.77 0.93 65.16 0.85C65.55 0.79 65.97 0.74 66.42 0.69C66.87 0.64 67.24 0.57 67.53 0.47C67.94 0.37 68.31 0.21 68.63 -0.03C68.95 -0.26 69.26 -0.51 69.55 -0.78C69.84 -1.04 70.13 -1.29 70.4 -1.54C70.67 -1.78 70.96 -1.97 71.25 -2.11C71.62 -2.27 72.06 -2.4 72.55 -2.52L74.05 -2.87C74.55 -2.99 75.01 -3.12 75.44 -3.25C75.87 -3.39 76.2 -3.56 76.44 -3.78C76.65 -3.97 76.81 -4.19 76.9 -4.42C77 -4.66 77.08 -4.9 77.12 -5.16C77.17 -5.41 77.21 -5.67 77.23 -5.93C77.25 -6.2 77.29 -6.46 77.37 -6.71C77.41 -6.9 77.5 -7.07 77.64 -7.21C77.77 -7.34 77.87 -7.5 77.93 -7.68Z"></path></g><g id="SvgjsG1114" class="text" transform="translate(246.6699984741211, 162.63704821777344) scale(1)" light-content="false" fill="#303030"><path d="M-52.13 -35.16C-52.17 -35.39 -52.31 -35.68 -52.56 -36.04C-52.8 -36.39 -53.1 -36.73 -53.44 -37.06C-53.78 -37.39 -54.15 -37.68 -54.55 -37.92C-54.95 -38.17 -55.33 -38.31 -55.68 -38.35C-56.21 -38.35 -56.67 -38.14 -57.08 -37.73C-57.5 -37.32 -57.85 -36.81 -58.15 -36.2C-58.46 -35.58 -58.73 -34.92 -58.96 -34.2C-59.19 -33.49 -59.4 -32.83 -59.58 -32.23C-59.69 -31.82 -59.78 -31.41 -59.82 -31.01C-59.87 -30.61 -59.91 -30.22 -59.94 -29.84C-59.97 -29.46 -60 -29.09 -60.04 -28.74C-60.08 -28.39 -60.16 -28.07 -60.28 -27.77C-60.47 -27.29 -60.76 -26.87 -61.13 -26.54C-61.5 -26.21 -61.78 -25.86 -61.98 -25.49C-62.13 -25.2 -62.2 -24.85 -62.18 -24.46C-62.16 -24.07 -62.21 -23.68 -62.33 -23.29C-62.43 -23.04 -62.54 -22.8 -62.68 -22.57C-62.82 -22.35 -62.93 -22.1 -63.03 -21.83C-63.25 -21.24 -63.46 -20.6 -63.68 -19.91C-63.89 -19.21 -64.09 -18.51 -64.28 -17.8C-64.46 -17.08 -64.64 -16.4 -64.8 -15.73C-64.97 -15.07 -65.13 -14.47 -65.27 -13.95C-65.42 -13.42 -65.56 -12.99 -65.68 -12.67C-65.81 -12.35 -65.93 -12.19 -66.05 -12.19C-66.11 -13.14 -66.25 -14.11 -66.49 -15.07C-66.72 -16.04 -66.97 -17.01 -67.22 -17.97C-67.48 -18.94 -67.71 -19.91 -67.91 -20.89C-68.12 -21.87 -68.22 -22.84 -68.22 -23.82L-68.22 -25.55C-68.22 -26.09 -68.24 -26.57 -68.29 -26.97C-68.34 -27.37 -68.4 -27.75 -68.48 -28.11C-68.56 -28.47 -68.64 -28.84 -68.73 -29.22C-68.82 -29.6 -68.9 -30.04 -68.98 -30.53C-69.16 -31.48 -69.29 -32.52 -69.39 -33.63C-69.49 -34.75 -69.61 -35.81 -69.77 -36.81C-69.93 -37.82 -70.14 -38.71 -70.4 -39.49C-70.66 -40.27 -71.05 -40.81 -71.56 -41.1C-71.83 -41.26 -72.19 -41.36 -72.64 -41.4C-73.09 -41.44 -73.57 -41.46 -74.08 -41.46C-75.27 -41.46 -76.16 -41.37 -76.76 -41.21C-77.35 -41.04 -77.8 -40.85 -78.11 -40.63C-78.41 -40.42 -78.64 -40.2 -78.81 -39.98C-78.97 -39.75 -79.22 -39.57 -79.56 -39.43C-79.77 -39.34 -80.03 -39.27 -80.35 -39.23C-80.66 -39.19 -80.97 -39.16 -81.27 -39.13C-81.57 -39.1 -81.86 -39.07 -82.12 -39.04C-82.38 -39.01 -82.58 -38.96 -82.72 -38.88C-83.23 -38.54 -83.58 -38.06 -83.79 -37.41C-83.99 -36.77 -84.1 -36.07 -84.1 -35.33C-84.1 -34.88 -84.07 -34.42 -84.02 -33.96C-83.97 -33.49 -83.91 -33.03 -83.82 -32.59C-83.73 -32.15 -83.64 -31.74 -83.55 -31.36C-83.47 -30.98 -83.37 -30.64 -83.28 -30.35C-83.16 -30.02 -83.05 -29.65 -82.95 -29.25C-82.86 -28.85 -82.76 -28.46 -82.68 -28.08C-82.59 -27.7 -82.5 -27.36 -82.41 -27.07C-82.32 -26.78 -82.23 -26.57 -82.13 -26.46C-81.88 -26.1 -81.58 -25.84 -81.24 -25.66C-80.9 -25.49 -80.58 -25.33 -80.27 -25.18C-79.97 -25.03 -79.71 -24.85 -79.5 -24.64C-79.28 -24.42 -79.17 -24.09 -79.17 -23.64C-79.17 -23.25 -79.24 -22.89 -79.37 -22.54C-79.49 -22.2 -79.56 -21.85 -79.56 -21.47C-79.56 -20.83 -79.37 -20.02 -79.01 -19.06C-78.65 -18.09 -78.25 -17.09 -77.81 -16.07C-77.37 -15.04 -76.97 -14.06 -76.61 -13.12C-76.25 -12.19 -76.07 -11.42 -76.07 -10.81C-76.07 -10.67 -76.08 -10.54 -76.1 -10.4C-76.12 -10.26 -76.13 -10.14 -76.13 -10.02C-76.13 -9.86 -76.07 -9.69 -75.97 -9.51C-75.86 -9.32 -75.73 -9.1 -75.59 -8.85C-75.44 -8.59 -75.29 -8.32 -75.13 -8.01C-74.98 -7.71 -74.85 -7.38 -74.75 -7.03C-74.67 -6.68 -74.59 -6.38 -74.52 -6.14C-74.44 -5.89 -74.37 -5.67 -74.3 -5.46C-74.23 -5.26 -74.15 -5.05 -74.06 -4.85C-73.97 -4.64 -73.88 -4.42 -73.78 -4.19C-73.69 -3.92 -73.63 -3.62 -73.61 -3.31C-73.59 -3 -73.53 -2.75 -73.43 -2.58C-73.06 -1.7 -72.67 -1 -72.26 -0.48C-71.85 0.03 -71.33 0.42 -70.71 0.67C-70.08 0.93 -69.31 1.09 -68.38 1.16C-67.45 1.23 -66.29 1.26 -64.91 1.26C-64.58 1.26 -64.29 1.25 -64.06 1.25C-63.82 1.24 -63.63 1.2 -63.47 1.14C-63.28 1.1 -62.99 0.94 -62.62 0.66C-62.25 0.38 -61.88 0.06 -61.51 -0.29C-61.14 -0.64 -60.8 -1 -60.5 -1.35C-60.2 -1.7 -60 -1.97 -59.93 -2.17C-59.89 -2.32 -59.86 -2.48 -59.84 -2.62C-59.82 -2.77 -59.81 -2.93 -59.81 -3.11L-59.81 -3.84C-59.81 -4.29 -59.72 -4.79 -59.53 -5.35C-59.35 -5.9 -59.14 -6.48 -58.9 -7.09C-58.67 -7.7 -58.46 -8.31 -58.27 -8.94C-58.09 -9.56 -57.99 -10.17 -57.99 -10.75C-57.99 -10.93 -58.01 -11.09 -58.04 -11.25C-58.07 -11.41 -58.08 -11.57 -58.08 -11.75C-58.1 -12.14 -58.05 -12.55 -57.92 -12.98C-57.79 -13.41 -57.64 -13.84 -57.45 -14.27C-57.27 -14.7 -57.07 -15.12 -56.87 -15.54C-56.66 -15.96 -56.5 -16.38 -56.38 -16.79C-56.26 -17.29 -56.18 -17.83 -56.12 -18.38C-56.06 -18.94 -55.97 -19.47 -55.85 -19.98C-55.76 -20.33 -55.64 -20.65 -55.52 -20.95C-55.39 -21.24 -55.27 -21.51 -55.15 -21.77C-55.03 -22.02 -54.93 -22.26 -54.84 -22.47C-54.76 -22.69 -54.71 -22.89 -54.71 -23.09C-54.71 -23.52 -54.75 -23.96 -54.83 -24.43C-54.91 -24.9 -54.95 -25.36 -54.95 -25.81C-54.95 -26.34 -54.9 -26.82 -54.8 -27.25C-54.7 -27.68 -54.59 -28.07 -54.46 -28.42C-54.34 -28.77 -54.19 -29.1 -54.04 -29.41C-53.88 -29.73 -53.75 -30.04 -53.63 -30.35C-53.53 -30.6 -53.47 -30.87 -53.45 -31.16C-53.43 -31.44 -53.37 -31.74 -53.28 -32.05C-53.06 -32.66 -52.82 -33.2 -52.54 -33.69C-52.27 -34.18 -52.13 -34.61 -52.13 -34.98Z M-18.27 -7.68C-18.15 -8.01 -18.06 -8.36 -18 -8.73C-17.94 -9.1 -17.92 -9.45 -17.92 -9.79C-17.92 -10.94 -18.19 -11.82 -18.75 -12.42C-19.31 -13.03 -20.11 -13.33 -21.17 -13.33C-21.6 -13.33 -22.01 -13.28 -22.4 -13.17C-22.79 -13.06 -23.17 -12.93 -23.55 -12.79C-23.94 -12.64 -24.33 -12.49 -24.74 -12.33C-25.15 -12.18 -25.6 -12.05 -26.09 -11.95C-26.67 -11.84 -27.29 -11.72 -27.95 -11.6C-28.6 -11.48 -29.27 -11.38 -29.96 -11.29C-30.64 -11.21 -31.32 -11.13 -32.01 -11.07C-32.69 -11.02 -33.35 -10.99 -34 -10.99C-34.84 -10.99 -35.46 -11.07 -35.87 -11.24C-36.28 -11.4 -36.57 -11.67 -36.72 -12.06C-36.88 -12.44 -36.95 -12.93 -36.94 -13.55C-36.93 -14.17 -36.93 -14.93 -36.93 -15.85C-36.93 -16.12 -36.89 -16.34 -36.83 -16.49C-36.76 -16.65 -36.64 -16.77 -36.46 -16.86C-36.28 -16.95 -36.03 -17.01 -35.7 -17.04C-35.37 -17.07 -34.94 -17.09 -34.41 -17.11C-32.98 -17.15 -31.84 -17.21 -30.97 -17.3C-30.1 -17.39 -29.42 -17.58 -28.95 -17.89C-28.47 -18.19 -28.15 -18.64 -27.99 -19.25C-27.84 -19.85 -27.76 -20.71 -27.76 -21.83C-27.76 -22.16 -27.77 -22.43 -27.8 -22.63C-27.83 -22.84 -27.89 -23.01 -27.96 -23.14C-28.04 -23.28 -28.15 -23.41 -28.29 -23.53C-28.42 -23.64 -28.61 -23.78 -28.84 -23.94C-28.94 -23.99 -29.01 -24.07 -29.06 -24.16C-29.11 -24.24 -29.18 -24.33 -29.28 -24.42C-29.38 -24.51 -29.51 -24.58 -29.68 -24.64C-29.84 -24.7 -30.08 -24.73 -30.4 -24.73C-30.69 -24.73 -30.98 -24.68 -31.26 -24.58C-31.54 -24.48 -31.85 -24.37 -32.17 -24.24C-32.49 -24.12 -32.83 -24 -33.19 -23.91C-33.55 -23.81 -33.96 -23.76 -34.41 -23.76C-34.78 -23.76 -35.26 -23.76 -35.86 -23.77C-36.46 -23.78 -37.06 -23.81 -37.66 -23.86C-38.27 -23.91 -38.82 -23.99 -39.33 -24.1C-39.84 -24.2 -40.18 -24.36 -40.36 -24.55C-40.4 -24.61 -40.44 -24.75 -40.49 -24.96C-40.54 -25.18 -40.58 -25.44 -40.62 -25.75C-40.66 -26.06 -40.69 -26.4 -40.72 -26.75C-40.75 -27.1 -40.77 -27.44 -40.77 -27.77C-40.77 -28.24 -40.74 -28.6 -40.69 -28.86C-40.64 -29.11 -40.56 -29.3 -40.43 -29.41C-40.3 -29.53 -40.12 -29.6 -39.89 -29.62C-39.65 -29.64 -39.35 -29.65 -38.98 -29.65C-37.57 -29.65 -36.17 -29.58 -34.76 -29.43C-33.35 -29.28 -32.08 -29.21 -30.92 -29.21C-29.97 -29.21 -29.07 -29.24 -28.24 -29.3C-27.41 -29.36 -26.57 -29.43 -25.71 -29.53C-24.75 -29.63 -23.91 -29.72 -23.19 -29.79C-22.47 -29.87 -21.86 -30.04 -21.37 -30.31C-20.88 -30.57 -20.52 -30.99 -20.27 -31.55C-20.03 -32.12 -19.91 -32.94 -19.91 -34.01C-19.91 -34.78 -20 -35.34 -20.2 -35.7C-20.4 -36.06 -20.68 -36.32 -21.05 -36.49C-21.42 -36.65 -21.88 -36.78 -22.41 -36.86C-22.95 -36.93 -23.55 -37.09 -24.21 -37.32C-24.39 -37.38 -24.58 -37.49 -24.8 -37.63C-25.01 -37.78 -25.26 -37.91 -25.53 -38.03C-25.77 -38.16 -26.04 -38.26 -26.35 -38.32C-26.67 -38.38 -26.93 -38.47 -27.14 -38.58C-27.48 -38.76 -27.74 -38.94 -27.95 -39.13C-28.15 -39.31 -28.36 -39.48 -28.56 -39.62C-28.77 -39.77 -28.99 -39.89 -29.22 -39.99C-29.46 -40.09 -29.77 -40.14 -30.16 -40.14C-30.79 -40.14 -31.35 -40.1 -31.86 -40.03C-32.37 -39.97 -32.83 -39.89 -33.25 -39.81C-33.67 -39.74 -34.05 -39.66 -34.38 -39.59C-34.71 -39.53 -35 -39.49 -35.26 -39.49C-36.55 -39.49 -37.83 -39.59 -39.1 -39.79C-40.37 -39.98 -41.59 -40.08 -42.76 -40.08C-43.44 -40.08 -44.23 -39.94 -45.13 -39.65C-46.03 -39.37 -46.88 -38.98 -47.68 -38.48C-48.48 -37.98 -49.16 -37.4 -49.72 -36.74C-50.27 -36.07 -50.55 -35.35 -50.55 -34.57C-50.55 -33.83 -50.4 -33.27 -50.1 -32.89C-49.79 -32.5 -49.47 -32.21 -49.12 -31.99C-48.76 -31.78 -48.44 -31.6 -48.13 -31.46C-47.83 -31.33 -47.68 -31.14 -47.68 -30.91C-47.68 -30.54 -47.7 -30.1 -47.74 -29.6C-47.78 -29.11 -47.82 -28.58 -47.86 -28.04C-47.9 -27.49 -47.93 -26.93 -47.97 -26.37C-48.01 -25.8 -48.03 -25.25 -48.03 -24.73C-48.03 -23.57 -48.01 -22.46 -47.96 -21.39C-47.91 -20.31 -47.84 -19.33 -47.74 -18.43C-47.7 -18.06 -47.62 -17.71 -47.49 -17.37C-47.36 -17.04 -47.3 -16.63 -47.3 -16.14C-47.3 -15.83 -47.31 -15.5 -47.34 -15.16C-47.37 -14.82 -47.39 -14.48 -47.39 -14.15C-47.39 -13.47 -47.35 -12.86 -47.29 -12.33C-47.22 -11.81 -47.18 -11.34 -47.18 -10.93C-47.18 -10.73 -47.21 -10.52 -47.26 -10.28C-47.3 -10.05 -47.38 -9.83 -47.48 -9.64C-47.57 -9.44 -47.71 -9.28 -47.87 -9.14C-48.04 -9 -48.25 -8.94 -48.5 -8.94L-48.94 -8.94C-49.17 -8.94 -49.44 -8.86 -49.73 -8.7C-50.02 -8.54 -50.3 -8.35 -50.55 -8.12C-50.81 -7.88 -51.02 -7.62 -51.2 -7.34C-51.37 -7.06 -51.46 -6.79 -51.46 -6.53C-51.46 -6.18 -51.39 -5.89 -51.25 -5.65C-51.12 -5.42 -50.95 -5.21 -50.74 -5.02C-50.54 -4.84 -50.31 -4.65 -50.07 -4.47C-49.82 -4.28 -49.6 -4.05 -49.41 -3.78C-49.35 -3.68 -49.29 -3.55 -49.23 -3.4C-49.17 -3.24 -49.12 -3.08 -49.06 -2.9C-49 -2.72 -48.94 -2.56 -48.88 -2.42C-48.82 -2.27 -48.76 -2.17 -48.71 -2.11C-48.16 -1.54 -47.6 -1.13 -47.04 -0.88C-46.47 -0.63 -45.9 -0.44 -45.34 -0.32C-44.77 -0.21 -44.2 -0.12 -43.64 -0.06C-43.07 0 -42.51 0.12 -41.97 0.29C-41.62 0.43 -41.32 0.58 -41.09 0.75C-40.85 0.91 -40.61 1.06 -40.36 1.2C-40.1 1.34 -39.79 1.45 -39.43 1.54C-39.07 1.63 -38.58 1.67 -37.95 1.67C-37.35 1.67 -36.72 1.64 -36.06 1.58C-35.41 1.52 -34.78 1.45 -34.16 1.36C-33.54 1.27 -32.97 1.19 -32.43 1.1C-31.89 1.01 -31.43 0.93 -31.04 0.85C-30.65 0.79 -30.23 0.74 -29.78 0.69C-29.33 0.64 -28.96 0.57 -28.67 0.47C-28.26 0.37 -27.89 0.21 -27.57 -0.03C-27.25 -0.26 -26.94 -0.51 -26.65 -0.78C-26.35 -1.04 -26.07 -1.29 -25.8 -1.54C-25.52 -1.78 -25.24 -1.97 -24.95 -2.11C-24.58 -2.27 -24.14 -2.4 -23.64 -2.52L-22.15 -2.87C-21.65 -2.99 -21.19 -3.12 -20.76 -3.25C-20.33 -3.39 -20 -3.56 -19.76 -3.78C-19.55 -3.97 -19.39 -4.19 -19.29 -4.42C-19.19 -4.66 -19.12 -4.9 -19.07 -5.16C-19.02 -5.41 -18.99 -5.67 -18.97 -5.93C-18.95 -6.2 -18.9 -6.46 -18.82 -6.71C-18.78 -6.9 -18.7 -7.07 -18.56 -7.21C-18.42 -7.34 -18.33 -7.5 -18.27 -7.68Z M14.78 -25.14C15 -25.63 15.14 -26.07 15.21 -26.47C15.27 -26.87 15.31 -27.27 15.31 -27.66C15.31 -28.01 15.28 -28.35 15.22 -28.7C15.16 -29.04 15.09 -29.4 15 -29.78C14.91 -30.16 14.81 -30.57 14.71 -31C14.6 -31.43 14.51 -31.89 14.43 -32.4C14.31 -32.97 14.26 -33.53 14.27 -34.09C14.28 -34.64 14.2 -35.12 14.05 -35.51C13.87 -35.98 13.71 -36.35 13.56 -36.64C13.42 -36.92 13.26 -37.16 13.08 -37.37C12.91 -37.57 12.71 -37.77 12.48 -37.97C12.26 -38.16 11.99 -38.41 11.67 -38.7C11.19 -39.15 10.8 -39.5 10.5 -39.74C10.21 -39.99 9.95 -40.16 9.71 -40.27C9.48 -40.38 9.23 -40.44 8.96 -40.46C8.7 -40.48 8.36 -40.49 7.95 -40.49C7.25 -40.49 6.48 -40.44 5.64 -40.34C4.8 -40.24 3.91 -40.14 2.97 -40.02C2.04 -39.9 1.05 -39.79 0.01 -39.7C-1.02 -39.6 -2.08 -39.55 -3.15 -39.55C-3.52 -39.55 -3.9 -39.56 -4.28 -39.58C-4.66 -39.6 -5.04 -39.61 -5.43 -39.61C-6.51 -39.61 -7.55 -39.55 -8.57 -39.43C-8.84 -39.36 -9.19 -39.24 -9.61 -39.08C-10.03 -38.93 -10.48 -38.8 -10.97 -38.7C-11.42 -38.58 -11.9 -38.53 -12.41 -38.54C-12.92 -38.55 -13.35 -38.49 -13.73 -38.35C-14.14 -38.17 -14.5 -37.94 -14.81 -37.66C-15.12 -37.38 -15.39 -37.08 -15.6 -36.75C-15.82 -36.43 -15.98 -36.11 -16.08 -35.79C-16.19 -35.46 -16.25 -35.16 -16.25 -34.86C-16.25 -34.51 -16.21 -34.24 -16.13 -34.04C-16.05 -33.85 -15.95 -33.7 -15.82 -33.6C-15.69 -33.51 -15.56 -33.43 -15.42 -33.37C-15.29 -33.31 -15.16 -33.22 -15.04 -33.11C-14.77 -32.87 -14.56 -32.65 -14.4 -32.43C-14.24 -32.22 -14.13 -31.98 -14.06 -31.71C-13.99 -31.45 -13.95 -31.13 -13.93 -30.76C-13.91 -30.39 -13.9 -29.94 -13.9 -29.41C-13.9 -28.44 -13.92 -27.57 -13.96 -26.81C-14 -26.04 -14.05 -25.34 -14.11 -24.68C-14.17 -24.03 -14.21 -23.39 -14.25 -22.76C-14.29 -22.14 -14.31 -21.49 -14.31 -20.83C-14.31 -20.15 -14.29 -19.47 -14.25 -18.79C-14.21 -18.12 -14.19 -17.47 -14.19 -16.85C-14.19 -15.79 -14.29 -14.78 -14.47 -13.8C-14.66 -12.82 -14.86 -11.84 -15.07 -10.85C-15.29 -9.87 -15.49 -8.86 -15.67 -7.84C-15.86 -6.81 -15.95 -5.72 -15.95 -4.57C-15.95 -3.73 -15.83 -3.08 -15.59 -2.62C-15.34 -2.16 -15 -1.82 -14.58 -1.6C-14.15 -1.37 -13.63 -1.24 -13.04 -1.2C-12.44 -1.16 -11.79 -1.14 -11.09 -1.14C-10.52 -1.14 -9.98 -1.21 -9.45 -1.35C-8.92 -1.48 -8.45 -1.7 -8.04 -2.01C-7.63 -2.31 -7.3 -2.69 -7.06 -3.15C-6.82 -3.61 -6.69 -4.16 -6.69 -4.8C-6.69 -5.25 -6.76 -5.77 -6.9 -6.36C-7.04 -6.94 -7.1 -7.57 -7.1 -8.23C-7.1 -9.37 -7.04 -10.47 -6.9 -11.56C-6.76 -12.64 -6.64 -13.65 -6.52 -14.59C-6.4 -15.55 -6.35 -16.32 -6.37 -16.9C-6.39 -17.49 -6.35 -17.94 -6.25 -18.27C-6.16 -18.59 -5.93 -18.8 -5.58 -18.91C-5.23 -19.02 -4.62 -19.07 -3.76 -19.07C-3.41 -19.07 -3.14 -18.97 -2.94 -18.76C-2.75 -18.56 -2.58 -18.28 -2.45 -17.93C-2.31 -17.58 -2.19 -17.17 -2.08 -16.7C-1.97 -16.23 -1.83 -15.72 -1.66 -15.18C-1.38 -14.36 -1.14 -13.62 -0.94 -12.98C-0.73 -12.33 -0.55 -11.71 -0.4 -11.1C-0.1 -9.89 0.15 -8.63 0.35 -7.32C0.56 -6.02 0.81 -4.82 1.11 -3.75C1.42 -2.68 1.81 -1.79 2.3 -1.1C2.79 -0.41 3.45 -0.06 4.29 -0.06C4.78 -0.06 5.3 -0.11 5.84 -0.22C6.39 -0.33 6.91 -0.46 7.4 -0.62C7.89 -0.77 8.33 -0.92 8.73 -1.07C9.13 -1.22 9.43 -1.34 9.62 -1.44C9.98 -1.61 10.38 -1.88 10.84 -2.24C11.3 -2.6 11.72 -3 12.11 -3.44C12.5 -3.88 12.84 -4.34 13.11 -4.82C13.38 -5.3 13.52 -5.75 13.52 -6.18C13.52 -6.67 13.42 -7.16 13.23 -7.65C13.03 -8.13 12.87 -8.66 12.73 -9.23C12.57 -9.78 12.46 -10.34 12.39 -10.93C12.32 -11.51 12.2 -12.05 12.03 -12.54C11.81 -13.14 11.51 -13.78 11.12 -14.44C10.73 -15.11 10.41 -15.71 10.15 -16.26C10.09 -16.38 9.98 -16.6 9.81 -16.92C9.65 -17.24 9.48 -17.6 9.32 -18C9.15 -18.4 9 -18.8 8.86 -19.2C8.73 -19.6 8.66 -19.94 8.66 -20.21C8.66 -20.49 8.83 -20.71 9.17 -20.87C9.51 -21.04 9.92 -21.2 10.39 -21.34C10.85 -21.49 11.33 -21.64 11.82 -21.8C12.31 -21.95 12.7 -22.15 12.99 -22.38C13.13 -22.5 13.28 -22.67 13.45 -22.9C13.61 -23.12 13.78 -23.36 13.95 -23.63C14.11 -23.89 14.27 -24.16 14.41 -24.42C14.56 -24.68 14.68 -24.92 14.78 -25.14ZM9.27 -28.33L9.27 -28.21C9.27 -27.86 9.17 -27.55 8.98 -27.28C8.78 -27 8.54 -26.78 8.25 -26.6C7.95 -26.43 7.64 -26.29 7.31 -26.19C6.98 -26.09 6.67 -26.04 6.37 -26.04C6.14 -26.04 5.89 -26.05 5.63 -26.07C5.36 -26.09 5.09 -26.1 4.82 -26.1C4.23 -26.08 3.62 -26.04 2.97 -25.97C2.33 -25.9 1.69 -25.83 1.05 -25.77C0.42 -25.7 -0.2 -25.63 -0.81 -25.58C-1.41 -25.52 -1.96 -25.49 -2.45 -25.49C-2.92 -25.49 -3.34 -25.5 -3.74 -25.52C-4.13 -25.54 -4.52 -25.55 -4.91 -25.55C-5.2 -25.55 -5.51 -25.53 -5.84 -25.5C-6.18 -25.47 -6.52 -25.41 -6.87 -25.31C-7.03 -25.76 -7.11 -26.29 -7.12 -26.91C-7.13 -27.52 -7.17 -28.17 -7.25 -28.86C-7.29 -29.09 -7.35 -29.39 -7.43 -29.77C-7.5 -30.14 -7.54 -30.48 -7.54 -30.79C-7.54 -30.99 -7.36 -31.17 -7 -31.33C-6.64 -31.5 -6.21 -31.64 -5.71 -31.76C-5.21 -31.87 -4.71 -31.97 -4.19 -32.05C-3.67 -32.13 -3.27 -32.19 -2.97 -32.23L-1.16 -32.46C-0.55 -32.54 0.03 -32.6 0.6 -32.65C1.17 -32.7 1.7 -32.74 2.2 -32.77C2.7 -32.8 3.13 -32.81 3.5 -32.81C4.13 -32.81 4.76 -32.72 5.41 -32.55C6.05 -32.37 6.54 -32.12 6.87 -31.79C7.05 -31.61 7.16 -31.35 7.22 -31C7.28 -30.64 7.46 -30.25 7.75 -29.82C7.89 -29.61 8.04 -29.43 8.22 -29.28C8.39 -29.14 8.55 -29.01 8.7 -28.9C8.85 -28.79 8.97 -28.7 9.08 -28.61C9.19 -28.52 9.25 -28.43 9.27 -28.33Z M48.59 -13.15C48.59 -13.6 48.53 -14.11 48.41 -14.68C48.3 -15.24 48.24 -15.83 48.24 -16.44C48.24 -16.96 48.23 -17.41 48.21 -17.78C48.19 -18.15 48.14 -18.5 48.06 -18.82C47.98 -19.15 47.87 -19.47 47.71 -19.79C47.55 -20.11 47.35 -20.48 47.09 -20.89C46.57 -21.71 45.96 -22.51 45.26 -23.31C44.57 -24.1 43.79 -24.83 42.93 -25.52C42.08 -26.2 41.14 -26.8 40.14 -27.32C39.13 -27.84 38.05 -28.23 36.9 -28.51C36.59 -28.56 36.23 -28.61 35.83 -28.64C35.43 -28.67 35.04 -28.74 34.67 -28.86C34.36 -28.97 34.06 -29.13 33.76 -29.33C33.47 -29.52 33.18 -29.73 32.9 -29.94C32.62 -30.16 32.33 -30.38 32.05 -30.62C31.77 -30.85 31.48 -31.06 31.19 -31.26C30.85 -31.47 30.56 -31.66 30.31 -31.82C30.05 -31.97 29.84 -32.12 29.68 -32.27C29.51 -32.42 29.38 -32.58 29.3 -32.75C29.21 -32.93 29.17 -33.13 29.17 -33.37C29.17 -33.78 29.26 -34.11 29.46 -34.37C29.65 -34.62 29.9 -34.82 30.21 -34.97C30.51 -35.11 30.85 -35.21 31.25 -35.26C31.64 -35.31 32.04 -35.33 32.45 -35.33C32.76 -35.33 33.15 -35.31 33.62 -35.27C34.09 -35.23 34.57 -35.19 35.07 -35.13C35.57 -35.07 36.05 -35 36.52 -34.91C36.99 -34.82 37.37 -34.73 37.66 -34.63C37.95 -34.53 38.23 -34.39 38.48 -34.22C38.74 -34.04 38.98 -33.86 39.21 -33.68C39.45 -33.49 39.68 -33.31 39.92 -33.13C40.15 -32.96 40.39 -32.83 40.62 -32.75C41.07 -32.58 41.58 -32.44 42.14 -32.33C42.71 -32.22 43.24 -32.17 43.73 -32.17C44.55 -32.17 45.22 -32.31 45.76 -32.59C46.3 -32.88 46.73 -33.25 47.05 -33.71C47.37 -34.17 47.6 -34.69 47.74 -35.27C47.88 -35.86 47.94 -36.46 47.94 -37.09C47.94 -37.4 47.91 -37.67 47.84 -37.9C47.77 -38.12 47.67 -38.33 47.52 -38.54C47.37 -38.75 47.19 -38.96 46.96 -39.18L46.19 -39.96C45.89 -40.25 45.59 -40.61 45.26 -41.02C44.94 -41.43 44.63 -41.76 44.34 -42.01C44.13 -42.19 43.85 -42.31 43.52 -42.39C43.19 -42.47 42.9 -42.6 42.64 -42.77C42.52 -43.11 42.35 -43.32 42.13 -43.42C41.9 -43.52 41.69 -43.56 41.5 -43.56C41.13 -43.58 40.57 -43.54 39.83 -43.45C39.09 -43.35 38.29 -43.23 37.44 -43.08C36.59 -42.93 35.75 -42.78 34.92 -42.61C34.09 -42.45 33.4 -42.3 32.86 -42.19C32.39 -42.09 31.91 -42.04 31.44 -42.03C30.96 -42.02 30.55 -41.94 30.22 -41.81C29.97 -41.71 29.74 -41.6 29.55 -41.47C29.35 -41.34 29.15 -41.21 28.95 -41.07C28.74 -40.94 28.51 -40.83 28.24 -40.74C27.98 -40.65 27.66 -40.61 27.29 -40.61C27.11 -40.61 26.94 -40.62 26.78 -40.65C26.61 -40.68 26.44 -40.69 26.26 -40.69C26.17 -40.69 25.96 -40.62 25.63 -40.47C25.31 -40.33 24.95 -40.13 24.54 -39.89C24.13 -39.64 23.71 -39.37 23.29 -39.05C22.87 -38.74 22.52 -38.42 22.25 -38.09C22.06 -37.85 21.88 -37.53 21.71 -37.12C21.54 -36.71 21.38 -36.25 21.23 -35.76C21.07 -35.26 20.93 -34.74 20.82 -34.2C20.7 -33.67 20.6 -33.17 20.52 -32.71C20.44 -32.25 20.38 -31.85 20.33 -31.49C20.28 -31.14 20.26 -30.91 20.26 -30.79C20.26 -30.17 20.47 -29.64 20.9 -29.22C21.33 -28.8 21.87 -28.44 22.51 -28.12C23.16 -27.81 23.85 -27.53 24.58 -27.28C25.31 -27.02 25.97 -26.75 26.56 -26.46C27.26 -26.1 27.96 -25.7 28.67 -25.25C29.37 -24.8 30.06 -24.38 30.75 -23.98C31.43 -23.58 32.1 -23.24 32.75 -22.97C33.41 -22.7 34.05 -22.56 34.67 -22.56C34.83 -22.56 34.98 -22.57 35.13 -22.59C35.27 -22.61 35.42 -22.62 35.58 -22.62C35.93 -22.62 36.31 -22.48 36.72 -22.19C37.13 -21.91 37.52 -21.59 37.88 -21.24C38.24 -20.89 38.56 -20.55 38.83 -20.23C39.11 -19.91 39.28 -19.71 39.36 -19.63C39.65 -19.18 39.86 -18.78 39.98 -18.44C40.09 -18.1 40.18 -17.76 40.22 -17.42C40.27 -17.08 40.31 -16.71 40.33 -16.33C40.35 -15.95 40.39 -15.49 40.44 -14.94C40.5 -14.32 40.63 -13.7 40.84 -13.08C41.04 -12.47 41.15 -11.88 41.15 -11.34C41.15 -10.65 41.07 -10.14 40.91 -9.79C40.76 -9.43 40.54 -9.16 40.27 -8.95C40 -8.75 39.68 -8.58 39.33 -8.45C38.98 -8.33 38.61 -8.14 38.22 -7.91C37.96 -7.75 37.74 -7.57 37.56 -7.37C37.37 -7.16 37.18 -6.96 36.99 -6.77C36.79 -6.57 36.56 -6.41 36.3 -6.27C36.04 -6.13 35.69 -6.06 35.26 -6.06C34.58 -6.06 33.88 -6.22 33.18 -6.52C32.48 -6.82 31.93 -7.23 31.54 -7.73C31.26 -8.07 31.07 -8.42 30.97 -8.79C30.86 -9.16 30.78 -9.56 30.72 -9.98C30.66 -10.4 30.62 -10.85 30.59 -11.34C30.56 -11.83 30.5 -12.34 30.42 -12.89C30.33 -13.38 30.21 -13.82 30.07 -14.22C29.94 -14.62 29.87 -15.02 29.87 -15.41C29.87 -15.62 29.88 -15.84 29.9 -16.07C29.92 -16.29 29.93 -16.51 29.93 -16.73C29.93 -17.12 29.83 -17.57 29.63 -18.08C29.44 -18.58 29.19 -19.07 28.9 -19.54C28.61 -20.01 28.29 -20.44 27.93 -20.83C27.58 -21.22 27.25 -21.49 26.94 -21.65C26.72 -21.77 26.4 -21.89 25.96 -22.03C25.52 -22.17 25.05 -22.3 24.55 -22.44C24.05 -22.58 23.57 -22.69 23.1 -22.78C22.63 -22.87 22.27 -22.91 22.02 -22.91C21.76 -22.91 21.52 -22.83 21.3 -22.68C21.07 -22.52 20.8 -22.42 20.46 -22.38C20.21 -22.38 19.97 -22.42 19.73 -22.5C19.5 -22.58 19.27 -22.62 19.06 -22.62C18.65 -22.62 18.25 -22.41 17.87 -22C17.49 -21.59 17.15 -21.07 16.86 -20.43C16.57 -19.8 16.33 -19.12 16.16 -18.38C15.98 -17.65 15.89 -16.96 15.89 -16.32C15.89 -15.75 16.06 -15.06 16.41 -14.24C16.75 -13.42 17.09 -12.49 17.45 -11.46C17.72 -10.67 17.96 -9.88 18.18 -9.08C18.39 -8.28 18.65 -7.6 18.94 -7.03C19.27 -6.41 19.66 -5.87 20.1 -5.42C20.54 -4.97 20.89 -4.5 21.17 -4.01C21.36 -3.62 21.49 -3.22 21.56 -2.8C21.63 -2.38 21.8 -1.98 22.08 -1.61C22.37 -1.2 22.74 -0.83 23.19 -0.51C23.64 -0.19 24.09 0.08 24.54 0.31C24.99 0.53 25.41 0.71 25.8 0.83C26.19 0.96 26.46 1.03 26.62 1.03C26.99 1.03 27.36 0.99 27.73 0.91C28.1 0.83 28.49 0.79 28.9 0.79C29.39 0.79 29.92 0.83 30.5 0.92C31.07 1.01 31.67 1.11 32.3 1.23C32.92 1.35 33.55 1.45 34.19 1.54C34.82 1.63 35.44 1.67 36.05 1.67C37.16 1.67 38.03 1.58 38.66 1.39C39.28 1.21 39.8 0.97 40.21 0.67C40.62 0.38 40.98 0.05 41.29 -0.32C41.61 -0.69 42 -1.06 42.47 -1.44C43.13 -1.94 43.8 -2.44 44.47 -2.92C45.15 -3.39 45.76 -3.89 46.3 -4.39C46.85 -4.9 47.3 -5.45 47.65 -6.04C48 -6.62 48.18 -7.29 48.18 -8.03C48.18 -8.46 48.16 -8.86 48.12 -9.23C48.08 -9.6 48.06 -9.9 48.06 -10.14C48.06 -10.62 48.14 -11.11 48.3 -11.6C48.45 -12.09 48.55 -12.61 48.59 -13.15Z M83.22 -7.68C83.33 -8.01 83.42 -8.36 83.48 -8.73C83.54 -9.1 83.57 -9.45 83.57 -9.79C83.57 -10.94 83.29 -11.82 82.73 -12.42C82.18 -13.03 81.37 -13.33 80.32 -13.33C79.89 -13.33 79.48 -13.28 79.09 -13.17C78.7 -13.06 78.31 -12.93 77.93 -12.79C77.55 -12.64 77.15 -12.49 76.74 -12.33C76.33 -12.18 75.88 -12.05 75.4 -11.95C74.81 -11.84 74.19 -11.72 73.54 -11.6C72.88 -11.48 72.21 -11.38 71.53 -11.29C70.84 -11.21 70.16 -11.13 69.48 -11.07C68.79 -11.02 68.13 -10.99 67.49 -10.99C66.65 -10.99 66.02 -11.07 65.61 -11.24C65.2 -11.4 64.92 -11.67 64.76 -12.06C64.6 -12.44 64.53 -12.93 64.54 -13.55C64.55 -14.17 64.56 -14.93 64.56 -15.85C64.56 -16.12 64.59 -16.34 64.66 -16.49C64.73 -16.65 64.85 -16.77 65.02 -16.86C65.2 -16.95 65.45 -17.01 65.79 -17.04C66.12 -17.07 66.55 -17.09 67.08 -17.11C68.5 -17.15 69.65 -17.21 70.52 -17.3C71.39 -17.39 72.06 -17.58 72.54 -17.89C73.02 -18.19 73.33 -18.64 73.49 -19.25C73.65 -19.85 73.73 -20.71 73.73 -21.83C73.73 -22.16 73.71 -22.43 73.68 -22.63C73.65 -22.84 73.6 -23.01 73.52 -23.14C73.44 -23.28 73.34 -23.41 73.2 -23.53C73.06 -23.64 72.88 -23.78 72.64 -23.94C72.54 -23.99 72.47 -24.07 72.42 -24.16C72.37 -24.24 72.3 -24.33 72.2 -24.42C72.1 -24.51 71.97 -24.58 71.81 -24.64C71.64 -24.7 71.4 -24.73 71.09 -24.73C70.8 -24.73 70.51 -24.68 70.22 -24.58C69.94 -24.48 69.64 -24.37 69.32 -24.24C68.99 -24.12 68.65 -24 68.29 -23.91C67.93 -23.81 67.52 -23.76 67.08 -23.76C66.7 -23.76 66.22 -23.76 65.63 -23.77C65.03 -23.78 64.43 -23.81 63.82 -23.86C63.22 -23.91 62.66 -23.99 62.15 -24.1C61.65 -24.2 61.3 -24.36 61.13 -24.55C61.09 -24.61 61.04 -24.75 61 -24.96C60.95 -25.18 60.9 -25.44 60.86 -25.75C60.83 -26.06 60.79 -26.4 60.76 -26.75C60.73 -27.1 60.72 -27.44 60.72 -27.77C60.72 -28.24 60.74 -28.6 60.79 -28.86C60.84 -29.11 60.93 -29.3 61.05 -29.41C61.18 -29.53 61.36 -29.6 61.6 -29.62C61.83 -29.64 62.13 -29.65 62.5 -29.65C63.91 -29.65 65.32 -29.58 66.72 -29.43C68.13 -29.28 69.41 -29.21 70.56 -29.21C71.52 -29.21 72.41 -29.24 73.24 -29.3C74.07 -29.36 74.92 -29.43 75.78 -29.53C76.73 -29.63 77.57 -29.72 78.3 -29.79C79.02 -29.87 79.62 -30.04 80.11 -30.31C80.6 -30.57 80.97 -30.99 81.21 -31.55C81.46 -32.12 81.58 -32.94 81.58 -34.01C81.58 -34.78 81.48 -35.34 81.28 -35.7C81.09 -36.06 80.81 -36.32 80.43 -36.49C80.06 -36.65 79.61 -36.78 79.07 -36.86C78.54 -36.93 77.93 -37.09 77.27 -37.32C77.09 -37.38 76.9 -37.49 76.68 -37.63C76.47 -37.78 76.23 -37.91 75.95 -38.03C75.72 -38.16 75.44 -38.26 75.13 -38.32C74.82 -38.38 74.56 -38.47 74.34 -38.58C74.01 -38.76 73.74 -38.94 73.54 -39.13C73.33 -39.31 73.13 -39.48 72.92 -39.62C72.71 -39.77 72.5 -39.89 72.26 -39.99C72.03 -40.09 71.71 -40.14 71.32 -40.14C70.7 -40.14 70.13 -40.1 69.62 -40.03C69.12 -39.97 68.65 -39.89 68.23 -39.81C67.81 -39.74 67.44 -39.66 67.1 -39.59C66.77 -39.53 66.48 -39.49 66.23 -39.49C64.94 -39.49 63.66 -39.59 62.39 -39.79C61.12 -39.98 59.9 -40.08 58.73 -40.08C58.04 -40.08 57.25 -39.94 56.35 -39.65C55.45 -39.37 54.6 -38.98 53.8 -38.48C53 -37.98 52.32 -37.4 51.77 -36.74C51.21 -36.07 50.93 -35.35 50.93 -34.57C50.93 -33.83 51.08 -33.27 51.39 -32.89C51.69 -32.5 52.02 -32.21 52.37 -31.99C52.72 -31.78 53.05 -31.6 53.35 -31.46C53.65 -31.33 53.8 -31.14 53.8 -30.91C53.8 -30.54 53.78 -30.1 53.75 -29.6C53.71 -29.11 53.67 -28.58 53.63 -28.04C53.59 -27.49 53.55 -26.93 53.51 -26.37C53.47 -25.8 53.45 -25.25 53.45 -24.73C53.45 -23.57 53.48 -22.46 53.53 -21.39C53.57 -20.31 53.65 -19.33 53.75 -18.43C53.78 -18.06 53.87 -17.71 53.99 -17.37C54.12 -17.04 54.18 -16.63 54.18 -16.14C54.18 -15.83 54.17 -15.5 54.14 -15.16C54.11 -14.82 54.1 -14.48 54.1 -14.15C54.1 -13.47 54.13 -12.86 54.2 -12.33C54.27 -11.81 54.3 -11.34 54.3 -10.93C54.3 -10.73 54.28 -10.52 54.23 -10.28C54.18 -10.05 54.11 -9.83 54.01 -9.64C53.91 -9.44 53.78 -9.28 53.61 -9.14C53.45 -9 53.24 -8.94 52.98 -8.94L52.54 -8.94C52.31 -8.94 52.05 -8.86 51.75 -8.7C51.46 -8.54 51.19 -8.35 50.93 -8.12C50.68 -7.88 50.46 -7.62 50.29 -7.34C50.11 -7.06 50.02 -6.79 50.02 -6.53C50.02 -6.18 50.09 -5.89 50.23 -5.65C50.37 -5.42 50.54 -5.21 50.74 -5.02C50.95 -4.84 51.17 -4.65 51.42 -4.47C51.66 -4.28 51.88 -4.05 52.08 -3.78C52.13 -3.68 52.19 -3.55 52.25 -3.4C52.31 -3.24 52.37 -3.08 52.43 -2.9C52.49 -2.72 52.54 -2.56 52.6 -2.42C52.66 -2.27 52.72 -2.17 52.78 -2.11C53.33 -1.54 53.88 -1.13 54.45 -0.88C55.01 -0.63 55.58 -0.44 56.15 -0.32C56.71 -0.21 57.28 -0.12 57.85 -0.06C58.41 0 58.97 0.12 59.52 0.29C59.87 0.43 60.16 0.58 60.4 0.75C60.63 0.91 60.87 1.06 61.13 1.2C61.38 1.34 61.69 1.45 62.05 1.54C62.41 1.63 62.91 1.67 63.53 1.67C64.14 1.67 64.77 1.64 65.42 1.58C66.07 1.52 66.71 1.45 67.32 1.36C67.94 1.27 68.52 1.19 69.05 1.1C69.59 1.01 70.05 0.93 70.44 0.85C70.83 0.79 71.25 0.74 71.7 0.69C72.15 0.64 72.52 0.57 72.82 0.47C73.23 0.37 73.59 0.21 73.92 -0.03C74.24 -0.26 74.55 -0.51 74.84 -0.78C75.13 -1.04 75.42 -1.29 75.69 -1.54C75.96 -1.78 76.25 -1.97 76.54 -2.11C76.91 -2.27 77.34 -2.4 77.84 -2.52L79.34 -2.87C79.83 -2.99 80.3 -3.12 80.73 -3.25C81.16 -3.39 81.49 -3.56 81.72 -3.78C81.94 -3.97 82.09 -4.19 82.19 -4.42C82.29 -4.66 82.36 -4.9 82.41 -5.16C82.46 -5.41 82.49 -5.67 82.51 -5.93C82.53 -6.2 82.58 -6.46 82.66 -6.71C82.7 -6.9 82.79 -7.07 82.92 -7.21C83.06 -7.34 83.16 -7.5 83.22 -7.68Z"></path></g></g></svg>